<?xml version="1.0" encoding="UTF-8"?>
<svg id="Layer_1" data-name="Layer 1" xmlns="http://www.w3.org/2000/svg" viewBox="0 0 226 143.85">
  <defs>
    <style>
      .cls-1 {
        fill: none;
      }

      .cls-1, .cls-2, .cls-3, .cls-4 {
        stroke-width: 0px;
      }

      .cls-2 {
        fill: #febe10;
      }

      .cls-3 {
        fill: #202d61;
      }

      .cls-4 {
        fill: #268c43;
      }
    </style>
  </defs>
  <g>
    <path class="cls-3" d="M41.26,69.36v10.24h40.38v9.37h-40.38v10.24h40.38v10.31H28.28v-50.48h53.36v10.31h-40.38Z"/>
    <rect class="cls-1" x="95.2" y="68.32" width=".99" height="15.21"/>
    <g>
      <rect class="cls-4" x="144.59" y="66.1" width="12.98" height="4.01"/>
      <rect class="cls-4" x="144.59" y="72.72" width="12.98" height="4.01"/>
      <rect class="cls-4" x="144.59" y="79.34" width="12.98" height="4.01"/>
      <rect class="cls-4" x="144.59" y="60.96" width="12.98" height="2.53"/>
      <rect class="cls-4" x="144.59" y="85.97" width="12.98" height="4.01"/>
      <polygon class="cls-3" points="157.57 98.46 157.57 92.59 144.59 92.59 144.59 108.77 196.51 108.77 196.51 98.46 157.57 98.46"/>
    </g>
    <rect class="cls-2" x="85.71" y="106.03" width="2.74" height="2.74"/>
    <rect class="cls-2" x="137.37" y="106.03" width="2.74" height="2.74"/>
  </g>
  <g>
    <path class="cls-1" d="M119.15,83.53v1.3c1.17-.27,2.29-.73,3.19-1.53-1.08.18-2.18.22-3.19.23Z"/>
    <path class="cls-1" d="M124.41,77.62c0-4.88-2.47-6.64-5.26-7.28v13.19c1.01,0,2.11-.05,3.19-.23,1.24-1.11,2.08-2.88,2.08-5.68Z"/>
    <path class="cls-2" d="M114.46,85.19h-22.08v10.89h25.69c.36,0,.73,0,1.08-.02v-11.23c-1.59.36-3.28.36-4.69.36Z"/>
    <path class="cls-2" d="M118.27,68.32c.28,0,.57,0,.87,0v-9.21c-.36-.01-.72-.02-1.08-.02h-25.69v10.89h3.81v-1.65h22.08Z"/>
    <path class="cls-2" d="M119.15,70.34v-2.01c-.3,0-.59,0-.87,0h-22.08v1.65h18.27c1.41,0,3.1,0,4.69.36Z"/>
  </g>
  <g>
    <path class="cls-2" d="M119.15,96.05c5.87-.24,10.71-2.42,13.93-6.08l-13.93-.09v6.17Z"/>
    <path class="cls-4" d="M119.15,59.11v11.23c2.8.64,5.26,2.4,5.26,7.28,0,2.8-.83,4.57-2.08,5.68-.9.8-2.01,1.27-3.19,1.53v5.05l13.93.09c2.75-3.13,4.31-7.34,4.31-12.35,0-10.89-7.37-18.06-18.24-18.51Z"/>
  </g>
  <g>
    <path class="cls-3" d="M2.22,122.67v1.75h6.92v1.61H2.22v1.75h6.92v1.77H0v-8.65h9.15v1.77H2.22Z"/>
    <path class="cls-3" d="M22.98,125.52l-.02,4.03h-2.13v-3.23c0-1.54-.52-2.35-2.26-2.35-1.42,0-2.95.73-3.61,1.5v4.08h-2.11v-7.28h2.11v1.27c1.04-.82,2.47-1.4,4.24-1.4,1.94,0,3.76.69,3.78,3.37Z"/>
    <path class="cls-3" d="M28.56,126.99c0,.78.8,1.08,3.16,1.08s2.66-.15,2.66-.72-.35-.59-2.9-.75c-3.2-.19-4.77-.43-4.77-2.19,0-1.9,2.22-2.26,4.82-2.26,2.74,0,4.73.36,4.73,2.36h-2.13c0-.61-.77-.75-2.73-.75s-2.57.15-2.57.57c0,.46.38.53,2.89.72,2.84.21,4.78.28,4.78,2.22,0,2.05-1.85,2.41-4.66,2.41s-5.4-.36-5.4-2.68h2.11Z"/>
    <path class="cls-3" d="M50.2,125.52l-.02,4.03h-2.13v-3.23c0-1.54-.52-2.35-2.26-2.35-1.42,0-2.95.73-3.61,1.5v4.08h-2.11v-9.89h2.11v3.88c1.04-.82,2.47-1.4,4.24-1.4,1.94,0,3.76.69,3.78,3.37Z"/>
    <path class="cls-3" d="M63.55,125.88v3.67h-2.13v-.9c-1.29.63-2.71,1.03-4.42,1.03-2.04,0-3.31-.65-3.31-2.3,0-1.89,2.08-2.48,4.39-2.48,1.25,0,2.4.2,3.35.52,0-1.38-1.78-1.5-2.77-1.5s-2.11.09-3.61.53l-.75-1.54c1.48-.48,2.94-.75,4.46-.75,3.04,0,4.77.98,4.8,3.73ZM61.43,126.72c-.74-.23-1.74-.44-3.09-.44-1.58,0-2.53.27-2.53,1.01s.7.83,1.8.83,2.73-.36,3.82-.83v-.57Z"/>
    <path class="cls-3" d="M76.61,122.27l-4.92,10.37h-2.34l1.47-3.09h-1.09l-3.77-7.28h2.35l3.11,6.01,2.84-6.01h2.34Z"/>
    <path class="cls-3" d="M90.04,125.52l-.02,4.03h-2.13v-3.23c0-1.54-.52-2.35-2.26-2.35-1.42,0-2.95.73-3.61,1.5v4.08h-2.11v-7.28h2.11v1.27c1.04-.82,2.47-1.4,4.24-1.4,1.94,0,3.76.69,3.78,3.37Z"/>
    <path class="cls-3" d="M98.57,122.15c2.72,0,4.63.89,4.98,3.03h-2.16c-.28-.94-1.29-1.26-2.82-1.26-1.82,0-2.93.48-2.93,2s1.11,1.99,2.93,1.99c1.53,0,2.53-.32,2.82-1.26h2.16c-.35,2.14-2.26,3.03-4.98,3.03-3.02,0-5.04-1.09-5.04-3.76s2.03-3.77,5.04-3.77Z"/>
    <path class="cls-3" d="M114.71,126.94h2.1c-.48,1.85-2.29,2.73-4.98,2.73s-4.92-1.09-4.92-3.76,2.09-3.77,5.04-3.77c2.77,0,4.98.95,4.98,4.26h-7.86c.23,1.16,1.35,1.54,2.76,1.54s2.35-.27,2.88-1.01ZM109.15,125.06h5.52c-.36-1.03-1.4-1.31-2.73-1.31-1.45,0-2.46.28-2.79,1.31Z"/>
    <path class="cls-4" d="M139.14,124.08c0,1.93-1.35,3.16-3.31,3.16h-4.57v2.31h-2.22v-8.65h6.8c1.96,0,3.31,1.25,3.31,3.18ZM136.92,124.08c0-1.31-1.04-1.31-1.71-1.31h-3.95v2.61h3.95c.67,0,1.71,0,1.71-1.3Z"/>
    <path class="cls-4" d="M151.82,125.88v3.67h-2.13v-.9c-1.29.63-2.71,1.03-4.42,1.03-2.04,0-3.31-.65-3.31-2.3,0-1.89,2.08-2.48,4.39-2.48,1.25,0,2.4.2,3.35.52,0-1.38-1.78-1.5-2.77-1.5s-2.11.09-3.61.53l-.75-1.54c1.48-.48,2.94-.75,4.46-.75,3.04,0,4.77.98,4.79,3.73ZM149.7,126.72c-.74-.23-1.74-.44-3.09-.44-1.58,0-2.53.27-2.53,1.01s.7.83,1.8.83,2.73-.36,3.82-.83v-.57Z"/>
    <path class="cls-4" d="M163.33,122.39v1.77c-.69-.17-1.25-.25-1.87-.25-1.19,0-2.55.27-3.83,1.27v4.36h-2.11v-7.28h2.11v1.24c1.09-.98,2.37-1.36,3.73-1.36.87,0,1.47.12,1.97.25Z"/>
    <path class="cls-4" d="M170.73,124.04v2.1c0,1.41.27,1.77,1.56,1.77.67,0,1.04,0,1.89-.12v1.71c-.7.12-1.51.19-2.48.19-1.88,0-3.09-.7-3.09-2.31v-3.32h-1.92v-1.77h1.92v-1.51l2.13-.61v2.11h3.45v1.77h-3.45Z"/>
    <path class="cls-4" d="M187.94,125.52l-.02,4.03h-2.13v-3.23c0-1.54-.52-2.35-2.26-2.35-1.42,0-2.95.73-3.61,1.5v4.08h-2.11v-7.28h2.11v1.27c1.04-.82,2.47-1.4,4.24-1.4,1.94,0,3.76.69,3.78,3.37Z"/>
    <path class="cls-4" d="M199.22,126.94h2.1c-.48,1.85-2.29,2.73-4.98,2.73s-4.92-1.09-4.92-3.76,2.09-3.77,5.04-3.77c2.77,0,4.98.95,4.98,4.26h-7.86c.23,1.16,1.35,1.54,2.76,1.54s2.35-.27,2.88-1.01ZM193.66,125.06h5.52c-.36-1.03-1.4-1.31-2.73-1.31-1.45,0-2.46.28-2.79,1.31Z"/>
    <path class="cls-4" d="M212.82,122.39v1.77c-.69-.17-1.25-.25-1.87-.25-1.19,0-2.55.27-3.83,1.27v4.36h-2.11v-7.28h2.11v1.24c1.09-.98,2.37-1.36,3.73-1.36.87,0,1.47.12,1.96.25Z"/>
    <path class="cls-4" d="M218.02,126.99c0,.78.8,1.08,3.16,1.08s2.66-.15,2.66-.72-.35-.59-2.9-.75c-3.2-.19-4.77-.43-4.77-2.19,0-1.9,2.22-2.26,4.82-2.26,2.74,0,4.73.36,4.73,2.36h-2.13c0-.61-.77-.75-2.73-.75s-2.57.15-2.57.57c0,.46.38.53,2.89.72,2.84.21,4.78.28,4.78,2.22,0,2.05-1.85,2.41-4.66,2.41s-5.4-.36-5.4-2.68h2.11Z"/>
  </g>
  <g>
    <path class="cls-2" d="M177.35,142.05v1.32h-6.28v-6.11h1.57v4.79h4.71Z"/>
    <path class="cls-2" d="M181.4,136.39v1.3h-1.49v-1.3h1.49ZM181.4,138.23v5.14h-1.49v-5.14h1.49Z"/>
    <path class="cls-2" d="M195.23,140.49l-.02,2.88h-1.49v-2.28c0-1.09-.18-1.66-1.25-1.66-.79,0-1.55.38-2.01.79,0,.09,0,.17,0,.27l-.02,2.88h-1.49v-2.28c0-1.09-.18-1.66-1.25-1.66-.86,0-1.7.44-2.13.91v3.03h-1.49v-5.14h1.49v.84c.56-.44,1.4-.92,2.67-.92.78,0,1.51.23,1.9.94.66-.5,1.58-.94,2.85-.94,1.15,0,2.2.49,2.22,2.35Z"/>
    <path class="cls-2" d="M199.36,136.39v1.3h-1.49v-1.3h1.49ZM199.36,138.23v5.14h-1.49v-5.14h1.49Z"/>
    <path class="cls-2" d="M204.68,139.48v1.48c0,.99.19,1.25,1.1,1.25.47,0,.73,0,1.33-.09v1.2c-.5.09-1.06.13-1.75.13-1.33,0-2.18-.5-2.18-1.63v-2.35h-1.35v-1.25h1.35v-1.06l1.5-.43v1.49h2.43v1.25h-2.43Z"/>
    <path class="cls-2" d="M214.94,141.53h1.48c-.34,1.31-1.61,1.93-3.52,1.93s-3.47-.77-3.47-2.65,1.47-2.66,3.56-2.66c1.95,0,3.52.67,3.52,3.01h-5.55c.17.82.95,1.09,1.95,1.09s1.66-.19,2.03-.72ZM211.01,140.2h3.9c-.25-.72-.99-.92-1.93-.92-1.02,0-1.74.2-1.97.92Z"/>
    <path class="cls-2" d="M226,136.39v6.98h-1.49v-.8c-.56.58-1.46.89-2.57.89-1.65,0-3.06-.69-3.06-2.65s1.41-2.66,3.06-2.66c1.11,0,2.01.31,2.57.89v-2.64h1.49ZM224.51,140.8c0-1.02-.73-1.41-2.07-1.41s-2.06.39-2.06,1.41.72,1.4,2.06,1.4,2.07-.39,2.07-1.4Z"/>
  </g>
  <path class="cls-3" d="M2.96,143.37c23-.76,58.15-.37,81.48-.45,21.15.09,55.54-.27,76.39.33,0,0,5.09.13,5.09.13l-5.09.13c-20.72.59-55.33.24-76.39.33-23.42-.09-58.36.31-81.48-.45h0Z"/>
  <g>
    <path class="cls-1" d="M129.79,57.45h.71c-.21-.15-.45-.3-.71-.46v.46Z"/>
    <path class="cls-1" d="M139.3,24.65c0-.14,0-.26-.01-.38v8.34c0-3.07,0-5.8.01-7.96Z"/>
    <path class="cls-1" d="M139.29,32.61v-8.34c-.06-.78-.34-1.21-.9-1.59-2.48-1.69-4.93-3.46-7.41-5.17-.33-.23-.65-.73-1.18-.42l1.57,40.36h7.9c0-4.16,0-8.32.01-12.48,0-3.76,0-7.44,0-10.78,0-.54,0-1.06,0-1.58ZM132.88,23.16c1.13.75,2.08,1.34,3,2,.39.28.66,4.13.35,4.53-.03.04-.07.07-.1.09-.38.24-3.23-1.97-3.24-2.56-.03-1.26,0-2.53,0-4.05ZM132.97,32.3c3.22.85,3.66,1.67,3.23,6-4.16-1.91-3.25-.52-3.23-6ZM132.88,41.96c.02-.28.03-.68.16-.82.43-.44,3.25,1.42,3.26,2.14.03,1.16,0,2.32,0,3.56-.45-.12-.76-.17-1.07-.28-2.56-.94-2.6-1.01-2.36-4.6ZM135.61,55.23c-2.28-.04-2.74-.52-2.73-3.23.4-.49-.69-1.95.56-2.01,2.11-.09,2.92.92,2.84,3.4-.02.63.59,1.86-.67,1.83Z"/>
    <path class="cls-4" d="M131.4,58.4l-.04-.95h-.86c.57.41.91.75.9.95Z"/>
    <path class="cls-3" d="M130.97,17.51c2.48,1.7,4.93,3.47,7.41,5.17.56.38.84.81.9,1.59v-8.91c0,1.37,0,2.73,0,4.09-.55.15-.86-.3-1.21-.56-2.42-1.84-4.85-3.66-7.23-5.58-.76-.62-1.34-.69-2.13-.06-2.54,2.05-5.09,4.1-7.73,5.92-1.38.95-1.84,2.06-1.82,4.14.07,11.38,0,20.29-.01,31.67h.01c3.17-1.36,8.11.5,10.63,2.01V17.09c.53-.31.85.19,1.18.42Z"/>
    <path class="cls-4" d="M161.65,11.5c-3.73-3.71-7.47-7.38-11.18-11.12-.57-.57-.94-.42-1.45-.01-2.93,2.28-5.85,4.56-8.82,6.75-.71.53-.95,1.12-.94,2.18.02,1.27.02,2.53.02,3.8v-.77,11.96c0,.12.01.25.01.38,0,2.79,0,5.59-.01,8.38v8.06-8.06c0,.39,0,.77,0,1.16,0,3.59,0,7.18,0,10.78,0,10.17,0,20.91-.01,27.05l5.33-14.34c0-.54,5.29.08,5.29-.47V3.97c4.23,3.02,8.27,5.91,12.35,8.82.1-.82-.3-1.02-.58-1.29ZM139.3,31.08V14.52v16.56Z"/>
    <path class="cls-4" d="M139.28,44.97c0-3.59,0-7.18,0-10.78,0,3.34,0,7.02,0,10.78Z"/>
    <path class="cls-4" d="M129.79,56.99c.27.16.5.31.71.46h.86l-1.57-40.36v39.9Z"/>
    <path class="cls-4" d="M139.29,33.04c0-2.79,0-5.59.01-8.38,0,2.16,0,4.89-.01,7.96v.43Z"/>
    <path class="cls-4" d="M139.28,34.19c0-.39,0-.77,0-1.16v-.43c0,.52,0,1.05,0,1.58Z"/>
    <path class="cls-2" d="M157.05,48.05c-.94-.26-1.84-.79-2.83-.72-.05,0-.1.43-.12.67-.37,3.59-.04,4.14,2.71,4.6.18.03.37.05.7.09,0-1.23.02-2.27,0-3.31-.01-.5.18-1.16-.45-1.33Z"/>
    <path class="cls-2" d="M157.05,30.57c-.93-.49-1.88-.94-2.96-1.48,0,.97.07,1.71-.01,2.43-.2,1.71.21,2.64,1.56,3.12,1.9.67,1.91.8,1.84-1.83-.02-.75.44-1.78-.43-2.24Z"/>
    <path class="cls-2" d="M154.21,11.37c-.42,4.45-.07,5.15,3.18,6.31.43-4.36.06-5.09-3.18-6.31Z"/>
    <path class="cls-2" d="M154.18,20.32c-.09,5.55-.83,4.2,3.25,6.19.26-4.78.07-5.14-3.25-6.19Z"/>
    <path class="cls-2" d="M154.2,38.28c-.12,5.4-.89,4.48,3.22,5.62.12-5.41.79-4.21-3.22-5.62Z"/>
    <path class="cls-2" d="M154.76,56.29c-.8,0-.84.56-.76,1.16h3.35c-.26-.96-.93-1.15-2.59-1.16Z"/>
    <path class="cls-2" d="M136.13,29.78s.07-.05.1-.09c.3-.39.04-4.25-.35-4.53-.92-.66-1.87-1.25-3-2,0,1.53-.02,2.79,0,4.05.01.6,2.86,2.81,3.24,2.56Z"/>
    <path class="cls-2" d="M136.2,38.3c.43-4.32-.01-5.15-3.23-6-.02,5.48-.93,4.08,3.23,6Z"/>
    <path class="cls-2" d="M136.28,53.39c.08-2.48-.74-3.49-2.84-3.4-1.25.05-.16,1.52-.56,2.01,0,2.71.45,3.19,2.73,3.23,1.26.02.65-1.21.67-1.83Z"/>
    <path class="cls-2" d="M135.24,46.56c.31.11.63.17,1.07.28,0-1.24.02-2.4,0-3.56-.02-.72-2.84-2.58-3.26-2.14-.13.14-.14.53-.16.82-.24,3.59-.21,3.66,2.36,4.6Z"/>
  </g>
</svg>