<svg role="img" viewBox="0 0 24 24" xmlns="http://www.w3.org/2000/svg" fill="currentColor"><path d="M19.193 1.999c-1.139-.714-2.836-.88-4.233-.035-1.11.66-1.85 1.554-2.28 2.38-.649 1.25-1.071 2.657-.993 4.095.045.83.33 1.66.822 2.393-.979.034-1.95.08-2.895.14-2.115.137-4.19.467-6.208 1.15-.812.274-1.61.62-2.37 1.085-1.07.65-1.88 1.487-2.316 2.457-.333.74-.474 1.57-.376 2.38.196 1.62.96 3.12 2.19 4.228 1.48 1.33 3.32 2.22 5.3 2.68 1.11.25 2.22.37 3.33.37.94 0 1.88-.1 2.8-.29 1.4-.29 2.76-.78 4-1.46.75-.41 1.44-.92 2.06-1.53.94-.92 1.6-2.05 1.92-3.28.23-.85.29-1.74.19-2.61-.22-1.91-1.03-3.69-2.3-5.22-.84-.99-1.88-1.81-3.08-2.4-.48-.23-.97-.43-1.46-.59.35-.92.56-1.9.56-2.89 0-1.24-.22-2.48-.65-3.65-.43-1.17-1.08-2.25-1.92-3.17-.6-.66-1.3-1.22-2.08-1.66zm.83 2.01c.42.26.82.59 1.16.99.6.72 1.05 1.57 1.36 2.51.31.94.46 1.94.46 2.95 0 .99-.21 1.97-.56 2.89.19.06.38.12.56.2.99.46 1.9.99 2.68 1.68.78.69 1.43 1.53 1.88 2.5.6 1.26.85 2.66.69 4.06-.11.96-.4 1.89-0.84 2.72-.58 1.12-1.44 2.12-2.58 2.9-1.11.75-2.4 1.28-3.79 1.55-.89.18-1.79.27-2.68.27-1.07 0-2.14-.12-3.21-.36-1.9-.44-3.66-1.3-4.99-2.51-1.18-1.08-1.9-2.49-2.09-3.99-.08-.82.06-1.63.38-2.35.39-.88 1.11-1.63 2.06-2.19.73-.44 1.49-.78 2.28-1.03 2.03-.69 4.12-1.02 6.24-1.15.96-.06 1.94-.11 2.92-.14-.07-.3-.13-.59-.17-.89-.08-1.44.34-2.85.99-4.09.39-.75.98-1.48 1.74-2.06.8-.59 1.8-.84 2.76-.62z"/></svg>